# xmcd
#
# Track frame offsets:
#	150
#	20670
#	37477
#	57942
#	74215
#	91412
#	108757
#	123595
#	138242
#	153525
#	171342
#	184910
#	201295
#	217995
#
# Disc length: 3074 seconds
#
# Revision: 0
# Processed by: cddbd v1.5.1PL0 Copyright (c) Steve Scherf et al.
# Submitted via: dBpowerAMP V4.0
#
DISCID=da0c000e
DTITLE=Varios - Love Songs Country Hits CD1
DYEAR=2002
DGENRE=Country
TTITLE0=A Whiter Shade of Pale - Paul Haret
TTITLE1=Forever Young - Dennis Palmer
TTITLE2=He Ain´t Heavy - Lucien Green
TTITLE3=Love Hurts - Lila Braent
TTITLE4=My Love - Jimmy Thomas
TTITLE5=Angel of the Morning - Evelyn Harris
TTITLE6=Mndy - Billy Payne
TTITLE7=We´ve Onlu Just Begun - Linda Laine
TTITLE8=Baby Can I Hold You - Helen Davis
TTITLE9=My Oh My - The Pacemakers
TTITLE10=We Said Good-Bye - The South Brothers
TTITLE11=Tell Me Once Again - Donna Gray
TTITLE12=All For a Reason - Gary Barnes
TTITLE13=Everybody´s Talking - Antony Steuber
EXTD=
EXTT0=
EXTT1=
EXTT2=
EXTT3=
EXTT4=
EXTT5=
EXTT6=
EXTT7=
EXTT8=
EXTT9=
EXTT10=
EXTT11=
EXTT12=
EXTT13=
PLAYORDER=
